<svg xmlns="http://www.w3.org/2000/svg" xmlns:xlink="http://www.w3.org/1999/xlink" width="1920" zoomAndPan="magnify" viewBox="0 0 1440 809.999993" height="1080" preserveAspectRatio="xMidYMid meet" version="1.0"><defs><filter x="0%" y="0%" width="100%" height="100%" id="8f9eaecbf0"><feColorMatrix values="0 0 0 0 1 0 0 0 0 1 0 0 0 0 1 0 0 0 1 0" color-interpolation-filters="sRGB"/></filter><mask id="eeb64ecefe"><g filter="url(#8f9eaecbf0)"><rect x="-144" width="1728" fill="#000000" y="-80.999999" height="971.999992" fill-opacity="0.6"/></g></mask><clipPath id="c607513970"><path d="M 69 56 L 749 56 L 749 742 L 69 742 Z M 69 56 " clip-rule="nonzero"/></clipPath><clipPath id="a8bed4fb40"><path d="M 1063.035156 0.65625 L 1118.464844 1063.460938 L 55.65625 1118.890625 L 0.230469 56.085938 Z M 1063.035156 0.65625 " clip-rule="nonzero"/></clipPath><clipPath id="5a92424141"><path d="M 1063.035156 0.65625 L 1118.464844 1063.460938 L 55.65625 1118.890625 L 0.230469 56.085938 Z M 1063.035156 0.65625 " clip-rule="nonzero"/></clipPath><clipPath id="ed561120e8"><path d="M 1063.035156 0.65625 L 1118.464844 1063.460938 L 55.660156 1118.890625 L 0.230469 56.085938 Z M 1063.035156 0.65625 " clip-rule="nonzero"/></clipPath><clipPath id="c52e7fa5e4"><rect x="0" width="749" y="0" height="742"/></clipPath><mask id="a3cd357480"><g filter="url(#8f9eaecbf0)"><rect x="-144" width="1728" fill="#000000" y="-80.999999" height="971.999992" fill-opacity="0.6"/></g></mask><clipPath id="d9ff2635c1"><path d="M 69 56 L 676 56 L 676 678 L 69 678 Z M 69 56 " clip-rule="nonzero"/></clipPath><clipPath id="f0318c1f3f"><path d="M 1063.421875 0.933594 L 1118.851562 1063.738281 L 56.046875 1119.167969 L 0.617188 56.363281 Z M 1063.421875 0.933594 " clip-rule="nonzero"/></clipPath><clipPath id="5a88425c8e"><path d="M 1063.421875 0.933594 L 1118.851562 1063.738281 L 56.046875 1119.167969 L 0.617188 56.363281 Z M 1063.421875 0.933594 " clip-rule="nonzero"/></clipPath><clipPath id="119022bcca"><path d="M 1063.421875 0.933594 L 1118.851562 1063.738281 L 56.046875 1119.167969 L 0.617188 56.363281 Z M 1063.421875 0.933594 " clip-rule="nonzero"/></clipPath><clipPath id="3a23349cc7"><rect x="0" width="676" y="0" height="678"/></clipPath></defs><rect x="-144" width="1728" fill="#ffffff" y="-80.999999" height="971.999992" fill-opacity="1"/><rect x="-144" width="1728" fill="#ffffff" y="-80.999999" height="971.999992" fill-opacity="1"/><rect x="-144" width="1728" fill="#ffffff" y="-80.999999" height="971.999992" fill-opacity="1"/><g mask="url(#eeb64ecefe)"><g transform="matrix(1, 0, 0, 1, 691, 68)"><g clip-path="url(#c52e7fa5e4)"><g clip-path="url(#c607513970)"><g clip-path="url(#a8bed4fb40)"><g clip-path="url(#5a92424141)"><g clip-path="url(#ed561120e8)"><path fill="#f4aeaa" d="M 930.875 834.101562 C 787.25 1010.398438 168.789062 1220.199219 79.484375 864.652344 C 18.988281 624.1875 235.976562 665.304688 490.953125 454 C 575.328125 383.953125 671.675781 -69.519531 924.28125 90.589844 C 1073.953125 185.515625 1118.558594 603.5 930.875 834.101562 Z M 930.875 834.101562 " fill-opacity="1" fill-rule="nonzero"/></g></g></g></g></g></g></g><g mask="url(#a3cd357480)"><g transform="matrix(1, 0, 0, 1, 764, 132)"><g clip-path="url(#3a23349cc7)"><g clip-path="url(#d9ff2635c1)"><g clip-path="url(#f0318c1f3f)"><g clip-path="url(#5a88425c8e)"><g clip-path="url(#119022bcca)"><path fill="#ff8882" d="M 931.261719 834.378906 C 787.636719 1010.675781 169.179688 1220.476562 79.871094 864.929688 C 19.375 624.464844 236.363281 665.582031 491.339844 454.277344 C 575.714844 384.230469 672.0625 -69.242188 924.667969 90.867188 C 1074.34375 185.792969 1118.949219 603.777344 931.261719 834.378906 Z M 931.261719 834.378906 " fill-opacity="1" fill-rule="nonzero"/></g></g></g></g></g></g></g></svg>